<?xml version="1.0" encoding="iso-8859-1"?>
<!-- Generator: Adobe Illustrator 19.0.0, SVG Export Plug-In . SVG Version: 6.00 Build 0)  -->
<svg version="1.1" id="Layer_1" xmlns="http://www.w3.org/2000/svg" xmlns:xlink="http://www.w3.org/1999/xlink" x="0px" y="0px"
	 viewBox="0 0 512 512" style="enable-background:new 0 0 512 512;" xml:space="preserve">
<g>
	<g>
		<circle style="fill:#FF2746;" cx="256" cy="256" r="256"/>
	</g>
	<path style="fill:#940030;" d="M288.639,66.177c-9.802,20.301-26.565,37.55-32.639,58.806
		c-20.687,79.3-20.687,160.323-70.68,225.832c-20.532,28.353-52.155,42.842-85.116,56.051l98.745,98.745
		C217.297,509.786,236.389,512,256,512c130.686,0,238.489-97.928,254.059-224.403L288.639,66.177z"/>
	<g>
		<path style="fill:#FFFFFF;" d="M200.323,408.79h111.354V130.407c0-30.749-24.928-83.515-55.677-83.515l0,0
			c-30.749,0-55.677,52.765-55.677,83.515V408.79z"/>
	</g>
	<g>
		<path style="fill:#E2E2E2;" d="M311.677,130.407c0-30.749-24.928-83.515-55.677-83.515l0,0c-0.193,0-0.383,0.026-0.574,0.031
			V408.79h56.251L311.677,130.407L311.677,130.407z"/>
	</g>
	<g>
		<g>
			<rect x="189.357" y="426.927" style="fill:#FFC61B;" width="55.677" height="27.838"/>
		</g>
		<g>
			<rect x="266.966" y="426.927" style="fill:#FFC61B;" width="55.677" height="27.838"/>
		</g>
	</g>
	<g>
		<path style="fill:#FFAD9E;" d="M200.323,297.436L100.202,397.557c-4.146,4.146-1.21,11.233,4.653,11.233h95.468"/>
	</g>
	<g>
		<path style="fill:#FF6262;" d="M311.677,297.436l100.121,100.121c4.146,4.146,1.21,11.233-4.653,11.233h-95.468"/>
	</g>
	<g>
		<path style="fill:#FF7F4F;" d="M172.485,439.58H256V230.793c0-23.062-18.696-41.758-41.758-41.758l0,0
			c-23.062,0-41.758,18.696-41.758,41.758V439.58H172.485z"/>
	</g>
	<g>
		<path style="fill:#E03A00;" d="M256,439.58h83.515V230.793c0-23.062-18.696-41.758-41.758-41.758l0,0
			c-23.062,0-41.758,18.696-41.758,41.758V439.58H256z"/>
	</g>
	<g>
		<path style="fill:#366695;" d="M256,74.73c12.435,0,23.593-3.627,31.242-9.376C278.333,54.379,267.581,46.892,256,46.892l0,0
			c-11.581,0-22.333,7.489-31.242,18.461C232.407,71.102,243.565,74.73,256,74.73z"/>
	</g>
	<g>
		<path style="fill:#273B7A;" d="M287.242,65.353C278.333,54.379,267.581,46.892,256,46.892l0,0c-0.193,0-0.383,0.019-0.574,0.022
			v27.795c0.193,0.002,0.379,0.021,0.574,0.021C268.435,74.73,279.593,71.102,287.242,65.353z"/>
	</g>
	<g>
		<path style="fill:#366695;" d="M236.316,130.407h39.367c4.505,0,8.154-3.651,8.154-8.154v-11.528c0-4.505-3.651-8.154-8.154-8.154
			h-39.367c-4.505,0-8.154,3.651-8.154,8.154v11.528C228.162,126.755,231.814,130.407,236.316,130.407z"/>
	</g>
	<g>
		<path style="fill:#273B7A;" d="M275.684,102.569h-20.258v27.838h20.258c4.505,0,8.154-3.651,8.154-8.154v-11.529
			C283.838,106.218,280.186,102.569,275.684,102.569z"/>
	</g>
</g>
<g>
</g>
<g>
</g>
<g>
</g>
<g>
</g>
<g>
</g>
<g>
</g>
<g>
</g>
<g>
</g>
<g>
</g>
<g>
</g>
<g>
</g>
<g>
</g>
<g>
</g>
<g>
</g>
<g>
</g>
</svg>
