<?xml version="1.0" standalone="no"?>
<!DOCTYPE svg PUBLIC "-//W3C//DTD SVG 20010904//EN"
 "http://www.w3.org/TR/2001/REC-SVG-20010904/DTD/svg10.dtd">
<svg version="1.0" xmlns="http://www.w3.org/2000/svg"
 width="332.000000pt" height="332.000000pt" viewBox="0 0 332.000000 332.000000"
 preserveAspectRatio="xMidYMid meet">
<metadata>
Created by potrace 1.11, written by Peter Selinger 2001-2013
</metadata>
<g transform="translate(0.000000,332.000000) scale(0.100000,-0.100000)"
fill="#000000" stroke="none">
<path d="M1698 3303 c-9 -11 -28 -94 -48 -211 -29 -172 -31 -195 -17 -209 8
-8 50 -21 93 -29 44 -7 88 -15 99 -18 122 -24 142 -18 147 45 3 28 -1 35 -19
37 -15 2 -23 -3 -28 -18 -6 -20 -11 -22 -63 -15 -95 12 -90 2 -66 141 15 91
15 95 -4 126 -21 35 -20 98 2 98 6 0 49 -7 96 -15 47 -8 86 -15 88 -15 2 0 2
-10 0 -22 -2 -19 2 -24 25 -26 25 -3 27 -1 27 36 0 22 -6 44 -12 50 -7 6 -67
20 -133 31 -66 12 -132 24 -146 27 -17 3 -30 -1 -41 -13z"/>
<path d="M978 3119 c-92 -54 -118 -75 -118 -92 0 -36 194 -354 221 -362 13 -5
34 2 59 19 22 14 42 26 44 26 11 0 146 91 146 98 0 4 -5 14 -10 22 -8 12 -19
9 -74 -20 -35 -19 -66 -33 -69 -30 -22 27 -95 156 -91 161 2 4 29 22 60 39 46
27 54 35 48 53 -4 12 -8 24 -10 26 -2 2 -40 -17 -84 -43 -44 -25 -84 -46 -90
-46 -5 0 -18 17 -29 38 l-19 38 83 49 c77 46 82 51 72 72 -6 13 -13 23 -16 23
-3 -1 -59 -32 -123 -71z"/>
<path d="M2208 3169 c-21 -12 -198 -341 -198 -368 0 -11 5 -23 10 -26 6 -3 10
-10 10 -15 0 -20 -37 -18 -100 4 -124 45 -289 57 -422 32 -299 -58 -545 -284
-628 -578 -27 -95 -36 -255 -21 -351 36 -220 164 -420 351 -546 l85 -57 0
-180 0 -179 -31 -3 c-40 -4 -43 -22 -39 -182 1 -63 3 -247 4 -407 l1 -293 435
0 435 0 0 440 0 440 -257 1 c-142 0 -295 0 -340 -1 l-83 -1 0 155 c0 86 4 156
8 156 5 0 35 -5 68 -11 80 -15 243 -26 238 -17 -3 5 10 8 28 8 30 0 96 13 141
26 15 5 17 -3 17 -70 l0 -76 60 0 60 0 1 103 0 102 70 45 c215 138 345 367
357 628 8 187 -23 320 -108 464 -42 70 -167 206 -238 259 -37 26 -36 48 1 64
13 6 45 52 80 117 55 101 58 109 48 145 -9 32 -7 43 12 78 13 22 22 48 19 58
-5 24 -53 48 -74 36z m-457 -480 c155 -21 276 -79 390 -186 134 -127 208 -288
216 -473 6 -138 -12 -227 -73 -347 -51 -103 -137 -204 -218 -259 l-50 -33 -28
49 c-65 114 -155 169 -294 178 -155 9 -273 -44 -333 -150 -17 -29 -34 -60 -39
-68 -8 -13 -19 -9 -66 24 -226 155 -343 466 -276 731 74 294 313 504 610 538
66 7 77 7 161 -4z m6 -1204 c38 -11 62 -27 91 -60 40 -46 57 -81 42 -90 -57
-35 -292 -47 -392 -19 -63 18 -63 19 -47 61 38 102 170 148 306 108z m223
-1026 l0 -319 -315 0 -315 0 0 320 0 320 315 -1 315 -1 0 -319z"/>
<path d="M2420 3035 c-11 -13 -8 -21 18 -48 18 -18 32 -37 32 -41 0 -4 -53
-62 -117 -127 -65 -66 -122 -131 -127 -144 -9 -22 -5 -31 29 -65 22 -22 47
-40 56 -40 10 0 56 42 103 93 75 80 86 97 86 128 0 24 7 42 23 57 30 28 38 28
67 -3 27 -29 48 -32 57 -9 4 11 -24 46 -93 115 -54 54 -104 99 -110 99 -6 0
-17 -7 -24 -15z"/>
<path d="M551 2706 c-7 -13 -11 -31 -9 -40 1 -9 75 -72 163 -140 126 -97 164
-122 180 -116 20 7 175 202 175 220 0 6 -8 14 -17 17 -12 5 -30 -9 -64 -47
l-48 -54 -88 67 c-75 58 -93 67 -125 65 -26 -1 -46 6 -71 25 -45 34 -79 35
-96 3z"/>
<path d="M2670 2682 c-80 -39 -82 -44 -65 -112 6 -24 1 -28 -90 -69 -53 -24
-100 -52 -106 -62 -13 -24 28 -108 56 -115 12 -3 59 12 111 36 51 22 96 40
102 40 5 0 15 -14 22 -30 19 -46 47 -47 133 -4 67 32 75 39 66 55 -13 25 -25
24 -88 -7 -30 -14 -57 -22 -61 -17 -13 14 -90 192 -90 208 0 9 20 24 47 36 65
28 75 37 62 60 -5 10 -13 19 -17 19 -4 -1 -41 -18 -82 -38z"/>
<path d="M442 2471 c-15 -9 -81 -249 -82 -294 0 -35 3 -36 223 -92 126 -32
183 -42 195 -36 21 11 96 289 86 315 -8 22 -75 40 -86 23 -10 -15 -10 -37 0
-37 4 0 13 -4 20 -9 11 -6 10 -20 -4 -74 -10 -37 -23 -67 -29 -67 -6 0 -55 11
-108 25 -91 24 -99 24 -127 10 -21 -11 -42 -14 -66 -9 -34 6 -34 7 -28 43 4
20 14 63 23 96 14 52 19 60 41 60 18 0 26 6 28 21 2 17 -4 23 -29 28 -40 8
-41 8 -57 -3z"/>
<path d="M2516 2185 c-11 -30 -8 -315 4 -330 6 -8 27 -12 48 -11 30 1 38 6 40
24 3 16 -3 23 -22 28 -25 6 -26 9 -26 80 l0 74 113 0 c109 0 115 1 137 25 19
20 32 25 60 23 l35 -3 3 -97 3 -98 -26 0 c-20 0 -25 -5 -25 -25 0 -22 4 -25
38 -25 21 0 43 5 50 12 17 17 17 309 0 326 -9 9 -71 12 -219 12 -176 0 -208
-2 -213 -15z"/>
<path d="M700 2003 c-110 -12 -175 -32 -202 -63 -15 -16 -33 -30 -40 -30 -35
0 -87 -23 -93 -39 -8 -25 34 -254 48 -264 17 -11 100 -2 271 32 86 16 152 34
157 42 10 15 2 84 -13 112 -10 19 -41 22 -114 8 -27 -5 -68 -12 -91 -16 l-41
-6 -12 56 c-18 88 -20 87 107 110 62 12 116 24 119 28 4 3 4 13 1 22 -6 15
-22 16 -97 8z m-181 -193 c16 -73 14 -87 -11 -94 -56 -15 -66 -9 -77 44 -16
74 -14 88 12 93 61 12 65 10 76 -43z"/>
<path d="M2500 1800 c-11 -11 -20 -24 -20 -30 0 -5 -17 -47 -38 -92 -56 -121
-65 -146 -58 -163 5 -14 95 -60 261 -135 28 -12 63 -28 78 -35 50 -24 64 -9
128 133 61 136 68 163 47 179 -18 13 -355 163 -368 163 -5 0 -19 -9 -30 -20z
m191 -106 c79 -36 148 -69 152 -73 9 -9 -41 -131 -54 -131 -4 0 -20 5 -34 12
-18 8 -34 8 -61 0 -38 -11 -42 -10 -169 48 -36 16 -65 32 -65 35 0 9 79 175
83 175 3 0 69 -29 148 -66z"/>
<path d="M735 1601 c-94 -51 -111 -64 -120 -92 -8 -23 -25 -42 -56 -59 -24
-15 -45 -34 -47 -44 -5 -23 24 -66 45 -66 27 0 363 183 369 202 5 18 -30 98
-50 110 -19 13 -28 10 -141 -51z"/>
<path d="M910 1455 c-22 -23 -22 -27 -8 -41 13 -13 19 -14 37 -2 19 12 25 9
73 -39 l52 -52 -77 -80 c-69 -72 -77 -85 -77 -119 0 -28 -7 -45 -24 -61 l-25
-23 -70 63 c-39 35 -71 67 -71 71 0 4 7 13 15 21 12 13 12 17 -4 31 -17 15
-20 15 -44 -10 -15 -15 -27 -35 -27 -44 0 -10 44 -60 98 -110 119 -114 135
-125 159 -112 37 21 273 287 273 308 0 27 -209 224 -237 224 -11 0 -30 -11
-43 -25z"/>
<path d="M2307 1449 c-41 -34 -47 -64 -19 -95 9 -10 46 -52 81 -92 54 -61 68
-72 95 -72 23 0 41 -9 60 -29 l29 -30 -63 -58 c-61 -57 -89 -78 -94 -71 -11
15 -237 266 -250 277 -15 12 -19 12 -34 -2 -15 -16 -14 -19 9 -44 14 -16 79
-88 143 -160 74 -83 125 -133 137 -133 23 0 236 184 245 212 3 11 0 27 -8 36
-101 121 -263 292 -276 292 -10 0 -34 -14 -55 -31z"/>
</g>
</svg>
